<svg height='100px' width='100px'  fill="#000000" xmlns="http://www.w3.org/2000/svg" xmlns:xlink="http://www.w3.org/1999/xlink" version="1.1" x="0px" y="0px" viewBox="0 0 100 100" enable-background="new 0 0 100 100" xml:space="preserve"><g><g><path d="M92.5,11.805h-85c-1.104,0-2,0.896-2,2v0.004v15.563v31.973v15.576v0.004c0,1.104,0.896,2,2,2h32.96v7.271    c0,0.726,0.393,1.394,1.026,1.747c0.634,0.353,1.409,0.336,2.025-0.046L50,83.887l6.488,4.01c0.322,0.199,0.687,0.299,1.052,0.299    c0.335,0,0.671-0.084,0.974-0.253c0.634-0.354,1.026-1.021,1.026-1.747v-7.271H92.5c1.104,0,2-0.896,2-2v-0.004V61.345V29.372    V13.809v-0.004C94.5,12.7,93.604,11.805,92.5,11.805z M90.5,15.809v11.417c-5.888-0.873-10.556-5.535-11.429-11.417H90.5z     M9.5,15.809h11.429C20.055,21.69,15.388,26.353,9.5,27.226V15.809z M9.5,74.921v-11.43c5.888,0.874,10.556,5.542,11.429,11.43    H9.5z M37.588,54.635c-0.139-0.251-0.212-0.53-0.212-0.809c0-0.65,0.379-1.247,0.959-1.517c0.861-0.396,1.619-1.018,2.205-1.813    c0.559-0.778,0.917-1.689,1.035-2.64c0.102-0.833,0.81-1.462,1.648-1.462c0.112,0,0.223,0.011,0.314,0.028    c0.352,0.07,0.718,0.106,1.088,0.106c1.576,0,3.09-0.66,4.144-1.8c0.647-0.689,1.821-0.68,2.449-0.01    c1.334,1.438,3.282,2.074,5.225,1.706c0.919-0.174,1.865,0.485,1.98,1.435c0.117,0.945,0.475,1.856,1.048,2.653    c0.572,0.778,1.33,1.399,2.185,1.793c0.587,0.272,0.966,0.869,0.966,1.52c0,0.278-0.073,0.559-0.205,0.799    c-0.469,0.836-0.716,1.79-0.716,2.758c0,0.962,0.246,1.911,0.712,2.744c0.139,0.255,0.209,0.526,0.209,0.807    c0,0.65-0.377,1.244-0.97,1.518c-0.857,0.4-1.611,1.021-2.193,1.813c-0.561,0.778-0.919,1.689-1.035,2.632    c-0.086,0.699-0.602,1.265-1.351,1.435c-0.104,0.024-0.202,0.031-0.301,0.031c-0.022,0-0.046-0.001-0.069-0.002    c-0.098-0.004-0.197-0.016-0.305-0.037c-0.094-0.016-0.187-0.019-0.28-0.029c-0.389-0.053-0.78-0.069-1.171-0.037    c-0.009,0-0.019,0.002-0.027,0.003c-0.216,0.019-0.432,0.046-0.645,0.089c-0.201,0.039-0.397,0.093-0.592,0.152    c-0.021,0.007-0.042,0.01-0.063,0.017c-0.672,0.216-1.297,0.553-1.844,1c-0.01,0.009-0.021,0.015-0.031,0.023    c-0.045,0.037-0.085,0.081-0.128,0.12c-0.136,0.119-0.271,0.237-0.395,0.37c-0.643,0.689-1.807,0.688-2.447,0.003    c-1.066-1.146-2.579-1.803-4.151-1.803c-0.032,0-0.063,0.009-0.096,0.01c-0.308,0.005-0.618,0.03-1.015,0.099    c-0.1,0.018-0.198,0.026-0.294,0.024c-0.062,0-0.122-0.012-0.184-0.021c-0.055-0.007-0.11-0.009-0.164-0.021    c-0.691-0.147-1.213-0.72-1.3-1.427c-0.117-0.943-0.475-1.853-1.047-2.647c-0.57-0.774-1.324-1.396-2.191-1.801    c-0.583-0.269-0.96-0.862-0.96-1.513c0-0.277,0.074-0.558,0.205-0.797c0.469-0.836,0.716-1.788,0.716-2.754    C38.298,56.414,38.05,55.46,37.588,54.635z M55.54,82.608l-4.488-2.774c-0.322-0.199-0.687-0.299-1.052-0.299    s-0.729,0.1-1.051,0.299l-4.489,2.774v-5.684v-4.674c0.037-0.004,0.073-0.006,0.11-0.007c0.081-0.002,0.161-0.004,0.24,0.005    c0.06,0.007,0.118,0.021,0.177,0.034c0.066,0.015,0.133,0.026,0.196,0.049c0.081,0.028,0.157,0.068,0.232,0.108    c0.042,0.022,0.086,0.038,0.126,0.064c0.082,0.052,0.153,0.118,0.224,0.185c0.027,0.025,0.059,0.044,0.084,0.071    c0.596,0.638,1.331,1.117,2.133,1.423c0.64,0.245,1.322,0.382,2.018,0.382c1.564,0,3.077-0.657,4.153-1.807    c0.016-0.017,0.034-0.028,0.051-0.044c0.075-0.074,0.155-0.144,0.243-0.201c0.032-0.021,0.068-0.038,0.103-0.058    c0.078-0.044,0.158-0.083,0.243-0.113c0.045-0.017,0.091-0.03,0.137-0.043c0.07-0.02,0.141-0.031,0.213-0.042    c0.063-0.008,0.126-0.018,0.191-0.019c0.068-0.002,0.138,0.005,0.206,0.012v4.674V82.608z M59.54,71.633    c1.543-0.865,2.631-2.425,2.855-4.248c0.034-0.277,0.142-0.549,0.298-0.767c0.175-0.237,0.401-0.425,0.646-0.54    c1.995-0.92,3.284-2.939,3.284-5.145c0-0.951-0.245-1.898-0.708-2.739c-0.002-0.005-0.005-0.01-0.008-0.015    c-0.134-0.239-0.205-0.515-0.205-0.797c0-0.289,0.069-0.56,0.213-0.815c0.463-0.842,0.708-1.789,0.708-2.741    c0-2.2-1.287-4.22-3.285-5.149c-0.248-0.114-0.472-0.3-0.631-0.517c-0.169-0.235-0.277-0.508-0.312-0.788    c-0.347-2.838-2.763-4.978-5.619-4.978c-0.365,0-0.731,0.035-1.087,0.104c-0.572,0.108-1.146-0.078-1.545-0.508    c-1.072-1.141-2.583-1.795-4.145-1.795s-3.072,0.654-4.155,1.807c-0.38,0.411-0.947,0.612-1.533,0.496    c-0.356-0.068-0.723-0.104-1.087-0.104c-2.858,0-5.273,2.141-5.619,4.975c-0.035,0.282-0.143,0.556-0.299,0.773    c-0.173,0.234-0.396,0.42-0.65,0.537c-1.992,0.927-3.279,2.946-3.279,5.146c0,0.952,0.246,1.9,0.716,2.752    c0.136,0.244,0.206,0.515,0.206,0.805c0,0.282-0.071,0.559-0.212,0.811c-0.464,0.842-0.709,1.789-0.709,2.74    c0,2.205,1.29,4.225,3.275,5.141c0.253,0.119,0.48,0.307,0.643,0.527c0.169,0.234,0.276,0.506,0.311,0.782    c0.226,1.836,1.327,3.401,2.855,4.256v3.285H24.955C24.034,66.828,17.596,60.39,9.5,59.467V31.25    c8.095-0.922,14.533-7.355,15.454-15.445h50.092c0.921,8.09,7.358,14.523,15.454,15.445v28.217    c-8.096,0.923-14.534,7.361-15.454,15.458H59.54V71.633z M90.5,74.921H79.07c0.874-5.888,5.542-10.556,11.43-11.43V74.921z"></path><path d="M71.375,31.82h-42.75c-1.104,0-2,0.896-2,2s0.896,2,2,2h42.75c1.104,0,2-0.896,2-2S72.479,31.82,71.375,31.82z"></path></g></g></svg>