<svg height='100px' width='100px'  fill="#000000" xmlns:x="http://ns.adobe.com/Extensibility/1.0/" xmlns:i="http://ns.adobe.com/AdobeIllustrator/10.0/" xmlns:graph="http://ns.adobe.com/Graphs/1.0/" xmlns="http://www.w3.org/2000/svg" xmlns:xlink="http://www.w3.org/1999/xlink" version="1.1" x="0px" y="0px" viewBox="0 0 100 100" style="enable-background:new 0 0 100 100;" xml:space="preserve"><g><g i:extraneous="self"><g><path d="M5273.1,2400.1v-2c0-2.8-5-4-9.7-4s-9.7,1.3-9.7,4v2c0,1.8,0.7,3.6,2,4.9l5,4.9c0.3,0.3,0.4,0.6,0.4,1v6.4     c0,0.4,0.2,0.7,0.6,0.8l2.9,0.9c0.5,0.1,1-0.2,1-0.8v-7.2c0-0.4,0.2-0.7,0.4-1l5.1-5C5272.4,2403.7,5273.1,2401.9,5273.1,2400.1z      M5263.4,2400c-4.8,0-7.4-1.3-7.5-1.8v0c0.1-0.5,2.7-1.8,7.5-1.8c4.8,0,7.3,1.3,7.5,1.8C5270.7,2398.7,5268.2,2400,5263.4,2400z"></path><path d="M5268.4,2410.3c-0.6,0-1,0.4-1,1c0,0.6,0.4,1,1,1h4.3c0.6,0,1-0.4,1-1c0-0.6-0.4-1-1-1H5268.4z"></path><path d="M5272.7,2413.7h-4.3c-0.6,0-1,0.4-1,1c0,0.6,0.4,1,1,1h4.3c0.6,0,1-0.4,1-1C5273.7,2414.1,5273.3,2413.7,5272.7,2413.7z"></path><path d="M5272.7,2417h-4.3c-0.6,0-1,0.4-1,1c0,0.6,0.4,1,1,1h4.3c0.6,0,1-0.4,1-1C5273.7,2417.5,5273.3,2417,5272.7,2417z"></path></g><g><path d="M93.6,51.9c-2.3-0.3-4.5,1.3-4.8,3.6c-1.2,8.4-5,16-11,22c-15.2,15.2-39.9,15.2-55.1,0c-15.2-15.2-15.2-39.9,0-55.1     c15.2-15.2,39.9-15.2,55.1,0l1.1,1.1h-6.4c-2.4,0-4.3,1.9-4.3,4.3s1.9,4.3,4.3,4.3h16.7c2.4,0,4.3-1.9,4.3-4.3V11.1     c0-2.4-1.9-4.3-4.3-4.3c-2.4,0-4.3,1.9-4.3,4.3v6.4l-1.1-1.1c-18.5-18.5-48.7-18.5-67.2,0c-18.5,18.5-18.5,48.7,0,67.2     c9.3,9.3,21.4,13.9,33.6,13.9c12.2,0,24.3-4.6,33.6-13.9c7.3-7.3,12-16.6,13.4-26.8C97.6,54.4,96,52.3,93.6,51.9z"></path><path d="M67.2,53l-12.7-5.8l-0.2-20.5c0-2.3-1.9-4.2-4.3-4.2c0,0,0,0,0,0c-2.4,0-4.2,1.9-4.2,4.3L45.9,50c0,1.7,1,3.2,2.5,3.8     l15.2,6.9c0.6,0.3,1.2,0.4,1.8,0.4c1.6,0,3.2-0.9,3.9-2.5C70.3,56.5,69.3,54,67.2,53z"></path></g></g></g></svg>