<svg height='100px' width='100px'  fill="#000000" xmlns="http://www.w3.org/2000/svg" xmlns:xlink="http://www.w3.org/1999/xlink" version="1.1" x="0px" y="0px" viewBox="0 0 50 50" enable-background="new 0 0 50 50" xml:space="preserve"><g><path d="M8.6,22.7H3c-1.1,0-2,0.9-2,2v21c0,1.1,0.9,2,2,2h5.6c1.1,0,2-0.9,2-2V45c1.2,0.5,2.6,0.7,3.9,0.7h16.1   c2.3,0,4.6-0.6,6.7-1.6l9.5-4.9c2-1,2.7-3.4,1.6-5.3c-1.1-1.8-3.5-2.5-5.4-1.6l-8.3,3c-0.6,0.2-1.4,0.4-2.2,0.6V35   c0-2.8-2.3-5.1-5.1-5.1c-4.2,0-3.7,0-5,0c-5.9,0.1-5.7-1.2-6.7-1.5c-1.5-1-3.3-1.6-5.1-1.8v-1.9C10.6,23.6,9.7,22.7,8.6,22.7z    M3,45.7v-21h5.6c0,12.9,0,20.3,0,21H3z M14.6,30.1c0.9,0.3,1.2,1.9,7.8,1.9c1.3,0,0.4,0,4.9,0c1.7,0,3.1,1.4,3.1,3.1v1.2   c-2.4,0.3-5,0.5-6.8,0.5c-0.6,0-1,0.4-1,1s0.4,1,1,1c2.6,0,8.7-0.4,11.7-1.5l8.4-3c0,0,0.1,0,0.1-0.1c1-0.5,2.3-0.2,2.8,0.8   c0.5,0.9,0.2,2-0.8,2.6l-9.5,4.9c-1.8,0.9-3.8,1.4-5.8,1.4H14.5c-1.4,0-2.7-0.3-3.9-0.9V28.6C12,28.8,13.4,29.3,14.6,30.1z"></path><path d="M30.8,21.8v-1.1c0.5-0.2,0.9-0.4,1.3-0.8c1.1-1.1,1.2-2.9,0.3-4.2c-0.7-0.9-1.8-1.4-2.6-1.3c-0.3-0.1-0.5-0.1-0.8-0.4   c-0.2-0.3-0.3-0.6-0.3-0.9c0-0.6,0.6-1.2,1.3-1.2c0.3,0,0.7,0.2,0.9,0.4c0.4,0.4,1,0.4,1.4,0.1c0.4-0.4,0.4-1,0.1-1.4   c-0.4-0.5-0.9-0.8-1.5-0.9V9c0-0.6-0.4-1-1-1s-1,0.4-1,1V10c-1.2,0.4-2.1,1.5-2.2,2.9c0,0.9,0.3,1.7,0.9,2.4   c1.3,1.4,2.6,0.7,3.2,1.6c0.4,0.5,0.3,1.2-0.1,1.6c-0.5,0.5-1.3,0.6-1.9,0c-0.4-0.4-1-0.4-1.4-0.1c-0.4,0.4-0.4,1-0.1,1.4   c0.4,0.4,0.9,0.8,1.5,0.9v1c0,0.6,0.4,1,1,1S30.8,22.3,30.8,21.8z"></path><path d="M42.9,15.4c0-7.2-5.9-13.1-13.1-13.1S16.7,8.2,16.7,15.4c0,7.2,5.9,13.1,13.1,13.1S42.9,22.6,42.9,15.4z M18.7,15.4   c0-6.1,5-11.1,11.1-11.1s11.1,5,11.1,11.1s-5,11.1-11.1,11.1S18.7,21.5,18.7,15.4z"></path></g></svg>