<svg height='100px' width='100px'  fill="#000000" xmlns="http://www.w3.org/2000/svg" xmlns:xlink="http://www.w3.org/1999/xlink" version="1.1" x="0px" y="0px" viewBox="0 0 64 64" style="enable-background:new 0 0 64 64;" xml:space="preserve"><g><path d="M15,21v8h2v-8h4v-2h-4C15.897,19,15,19.897,15,21z"></path><rect x="15" y="31" width="2" height="2"></rect><rect x="15" y="35" width="2" height="2"></rect><rect x="45" y="37" width="2" height="2"></rect><rect x="45" y="41" width="2" height="2"></rect><rect x="45" y="33" width="2" height="2"></rect><rect x="5" y="35" width="2" height="2"></rect><rect x="5" y="43" width="2" height="2"></rect><rect x="5" y="39" width="2" height="2"></rect><path d="M58,1H28c-2.757,0-5,2.243-5,5v9h-7c-2.757,0-5,2.243-5,5v9H6c-2.757,0-5,2.243-5,5v24c0,2.757,2.243,5,5,5h30   c2.757,0,5-2.243,5-5v-9h5c2.757,0,5-2.243,5-5v-9h7c2.757,0,5-2.243,5-5V6C63,3.243,60.757,1,58,1z M39,58c0,1.654-1.346,3-3,3H6   c-1.654,0-3-1.346-3-3V34c0-1.654,1.346-3,3-3h5v13c0,2.757,2.243,5,5,5h23V58z M49,44c0,1.654-1.346,3-3,3H16   c-1.654,0-3-1.346-3-3V20c0-1.654,1.346-3,3-3h30c1.654,0,3,1.346,3,3V44z M57,9H43V7h14V9z M61,30c0,1.654-1.346,3-3,3h-7V20   c0-2.757-2.243-5-5-5h-3v-4h14v10.184C56.686,21.072,56.352,21,56,21c-1.654,0-3,1.346-3,3s1.346,3,3,3s3-1.346,3-3V5H41v10H25V6   c0-1.654,1.346-3,3-3h30c1.654,0,3,1.346,3,3V30z M57,24c0,0.552-0.448,1-1,1s-1-0.448-1-1s0.448-1,1-1S57,23.448,57,24z"></path><path d="M23,41.618L42.236,32L23,22.382V41.618z M25,25.618L37.764,32L25,38.382V25.618z"></path><path d="M16,53h-6v2H5v2h5v2h6v-2h21v-2H16V53z M14,57h-2v-2h2V57z"></path><rect x="27" y="5" width="12" height="2"></rect><rect x="27" y="9" width="12" height="2"></rect></g></svg>